<svg xmlns="http://www.w3.org/2000/svg" xmlns:xlink="http://www.w3.org/1999/xlink" width="63.916" height="63.916" viewBox="0 0 63.916 63.916">
  <defs>
    <style>
      .cls-1 {
        fill: #fff;
      }

      .cls-2 {
        clip-path: url(#clip-path);
      }
    </style>
    <clipPath id="clip-path">
      <path id="Path_4" data-name="Path 4" class="cls-1" d="M63.916,0V63.916H0V0Z"/>
    </clipPath>
  </defs>
  <g id="_3669366_copyright_ic_icon" data-name="3669366_copyright_ic_icon" class="cls-2">
    <path id="Path_3" data-name="Path 3" class="cls-1" d="M30.632,4A26.632,26.632,0,1,0,57.263,30.632,26.624,26.624,0,0,0,30.632,4Zm0,47.937A21.305,21.305,0,1,1,51.937,30.632,21.334,21.334,0,0,1,30.632,51.937ZM25.518,27.609a7.015,7.015,0,0,1,.8-2.317,4.631,4.631,0,0,1,1.571-1.638,4.574,4.574,0,0,1,2.384-.613A4.458,4.458,0,0,1,32,23.388a4.2,4.2,0,0,1,2.277,2.37,5.193,5.193,0,0,1,.36,1.7h4.767a9.528,9.528,0,0,0-.732-3.435,7.97,7.97,0,0,0-1.878-2.69,8.252,8.252,0,0,0-2.876-1.744,10.66,10.66,0,0,0-3.715-.626,10.544,10.544,0,0,0-4.514.892,9,9,0,0,0-3.2,2.45,10.3,10.3,0,0,0-1.9,3.609,15.029,15.029,0,0,0-.613,4.354V31a15.057,15.057,0,0,0,.626,4.368,10.125,10.125,0,0,0,1.9,3.6A9.055,9.055,0,0,0,25.718,41.4a10.648,10.648,0,0,0,4.527.892,9.856,9.856,0,0,0,3.515-.613,9.373,9.373,0,0,0,2.876-1.691,8.129,8.129,0,0,0,1.971-2.5,7.364,7.364,0,0,0,.8-3.063H34.64a3.792,3.792,0,0,1-.4,1.545,3.722,3.722,0,0,1-.959,1.212,4.478,4.478,0,0,1-1.4.786,4.927,4.927,0,0,1-1.611.266,4.646,4.646,0,0,1-2.384-.626A4.7,4.7,0,0,1,26.3,35.958a6.986,6.986,0,0,1-.8-2.33,15.715,15.715,0,0,1-.2-2.623v-.732a15.974,15.974,0,0,1,.213-2.663Z" transform="translate(1.326 1.326)"/>
  </g>
</svg>
