<svg id="Instagram" xmlns="http://www.w3.org/2000/svg" width="42" height="42" viewBox="0 0 42 42">
  <path id="iconmonstr-instagram-14" d="M25.951,11.028c-1.291-.059-1.68-.07-4.951-.07s-3.658.012-4.949.07c-3.323.152-4.87,1.726-5.022,5.023-.058,1.291-.072,1.678-.072,4.949s.014,3.657.072,4.951c.152,3.288,1.692,4.87,5.022,5.023,1.29.058,1.678.072,4.949.072s3.659-.012,4.951-.072c3.323-.151,4.868-1.729,5.023-5.023.058-1.292.07-1.68.07-4.951s-.012-3.657-.07-4.949c-.154-3.3-1.7-4.87-5.023-5.022ZM21,27.291A6.29,6.29,0,1,1,27.291,21,6.291,6.291,0,0,1,21,27.291Zm6.54-11.359a1.47,1.47,0,1,1,1.47-1.47A1.47,1.47,0,0,1,27.54,15.932ZM25.083,21A4.083,4.083,0,1,1,21,16.917,4.083,4.083,0,0,1,25.083,21ZM21,0A21,21,0,1,0,42,21,21,21,0,0,0,21,0ZM33.176,26.05c-.2,4.454-2.681,6.921-7.124,7.126-1.307.06-1.726.074-5.052.074s-3.743-.014-5.051-.074c-4.452-.2-6.921-2.676-7.126-7.126-.06-1.306-.073-1.724-.073-5.05s.014-3.743.073-5.05c.2-4.452,2.676-6.921,7.126-7.124C17.257,8.764,17.673,8.75,21,8.75s3.745.014,5.052.075c4.454.2,6.925,2.681,7.124,7.124.06,1.307.074,1.724.074,5.05S33.236,24.745,33.176,26.05Z" transform="translate(0)" fill="#fff"/>
</svg>
