<svg id="Instagram" xmlns="http://www.w3.org/2000/svg" width="67" height="67" viewBox="0 0 67 67">
  <path id="iconmonstr-instagram-14" d="M41.4,17.593c-2.06-.095-2.68-.112-7.9-.112s-5.835.02-7.895.112c-5.3.243-7.769,2.753-8.012,8.012-.092,2.06-.114,2.677-.114,7.895s.022,5.835.114,7.9c.243,5.246,2.7,7.769,8.012,8.012,2.057.092,2.677.114,7.895.114s5.837-.02,7.9-.114c5.3-.24,7.766-2.758,8.012-8.012.092-2.06.112-2.68.112-7.9s-.02-5.835-.112-7.895c-.246-5.257-2.716-7.769-8.012-8.012ZM33.5,43.536A10.035,10.035,0,1,1,43.536,33.5,10.036,10.036,0,0,1,33.5,43.536ZM43.932,25.415a2.345,2.345,0,1,1,2.345-2.345A2.345,2.345,0,0,1,43.932,25.415ZM40.013,33.5A6.513,6.513,0,1,1,33.5,26.987,6.513,6.513,0,0,1,40.013,33.5ZM33.5,0A33.5,33.5,0,1,0,67,33.5,33.5,33.5,0,0,0,33.5,0ZM52.924,41.557C52.6,48.662,48.648,52.6,41.56,52.924c-2.085.095-2.753.117-8.06.117s-5.971-.022-8.057-.117c-7.1-.327-11.041-4.268-11.368-11.368-.095-2.083-.117-2.75-.117-8.057s.022-5.971.117-8.057c.327-7.1,4.268-11.041,11.368-11.365,2.085-.1,2.75-.12,8.057-.12s5.974.022,8.06.12c7.1.327,11.047,4.277,11.365,11.365.095,2.085.117,2.75.117,8.057S53.019,39.474,52.924,41.557Z" transform="translate(0)" fill="#005D79"/>
</svg>
