<svg id="Phone" xmlns="http://www.w3.org/2000/svg" width="67" height="67" viewBox="0 0 67 67">
  <circle id="Ellipse_4" data-name="Ellipse 4" cx="33.5" cy="33.5" r="33.5" fill="#005D79"/>
  <path id="phone-2" data-name="phone" d="M11.368,21.008A34.9,34.9,0,0,0,26.6,36.242l5.086-5.086a2.32,2.32,0,0,1,2.358-.578A26.261,26.261,0,0,0,42.3,31.9a2.312,2.312,0,0,1,2.312,2.312V42.3A2.312,2.312,0,0,1,42.3,44.61,39.3,39.3,0,0,1,3,5.312,2.312,2.312,0,0,1,5.312,3H13.4a2.312,2.312,0,0,1,2.312,2.312,26.261,26.261,0,0,0,1.318,8.253,2.32,2.32,0,0,1-.578,2.358Z" transform="translate(9.695 9.39)" fill="#fff"/>
</svg>
