<svg id="Twitter" xmlns="http://www.w3.org/2000/svg" width="42" height="42" viewBox="0 0 42 42">
  <path id="iconmonstr-twitter-4" d="M21,0A21,21,0,1,0,42,21,21,21,0,0,0,21,0ZM31.616,16.879A14.293,14.293,0,0,1,9.625,29.572a10.112,10.112,0,0,0,7.441-2.081A5.038,5.038,0,0,1,12.369,24a5.041,5.041,0,0,0,2.272-.086,5.034,5.034,0,0,1-4.032-4.993,5.014,5.014,0,0,0,2.277.628,5.034,5.034,0,0,1-1.556-6.711A14.267,14.267,0,0,0,21.69,18.09,5.03,5.03,0,0,1,30.256,13.5a10.026,10.026,0,0,0,3.192-1.22,5.047,5.047,0,0,1-2.21,2.781,10.027,10.027,0,0,0,2.886-.793A10.089,10.089,0,0,1,31.616,16.879Z" fill="#fff"/>
</svg>
