<svg id="Twitter" xmlns="http://www.w3.org/2000/svg" width="67" height="67" viewBox="0 0 67 67">
  <path id="iconmonstr-twitter-4" d="M33.5,0A33.5,33.5,0,1,0,67,33.5,33.5,33.5,0,0,0,33.5,0ZM50.434,26.926c.511,11.278-7.9,23.852-22.791,23.852a22.687,22.687,0,0,1-12.289-3.6,16.131,16.131,0,0,0,11.87-3.319,8.037,8.037,0,0,1-7.493-5.569,8.042,8.042,0,0,0,3.624-.137,8.03,8.03,0,0,1-6.432-7.965,8,8,0,0,0,3.632,1A8.03,8.03,0,0,1,18.073,20.48,22.76,22.76,0,0,0,34.6,28.857a8.024,8.024,0,0,1,13.665-7.314A15.994,15.994,0,0,0,53.357,19.6a8.051,8.051,0,0,1-3.526,4.436,16,16,0,0,0,4.6-1.265A16.094,16.094,0,0,1,50.434,26.926Z" fill="#005D79"/>
</svg>
